# xmcd CD database file
#
# Track frame offsets:
#	150
#	11188
#	20063
#	31788
#	42338
#	55313
#	66038
#	79588
#	89775
#
# Disc length: 1338 seconds
#
# Revision: 0
# Processed by: cddbd v1.4PL0 Copyright (c) Steve Scherf et al.
# Submitted via: CDex 1.40Release
#
DISCID=72053809
DTITLE=PATSY CLINE - ANGEL
DYEAR=1998
DGENRE=Country
TTITLE0=ANGEL
TTITLE1=COME ON IN
TTITLE2=CRY NOT FOR ME
TTITLE3=THREE CIGARETTES IN AN ASTRAY
TTITLE4=FINGERPRINTS
TTITLE5=TOO MANY SECRETS
TTITLE6=LIFE'S RAILWAY TO HEAVEN
TTITLE7=WALKING DREAM
TTITLE8=I CRIED ALL THE WAY TO THE ALTAR
EXTD=YEAR: 1998 ID3G: 2
EXTT0=
EXTT1=
EXTT2=
EXTT3=
EXTT4=
EXTT5=
EXTT6=
EXTT7=
EXTT8=
PLAYORDER=
